<mxfile host="app.diagrams.net" modified="2024-06-07T04:57:51.290Z" agent="Mozilla/5.0 (Windows NT 10.0; Win64; x64) AppleWebKit/537.36 (KHTML, like Gecko) Chrome/125.0.0.0 Safari/537.36 Edg/125.0.0.0" etag="IxOScaomYKfmMEs5W0cu" version="24.4.11" type="device">
  <diagram name="Page-1" id="rE_cY4PCDJTStgAl1XJ6">
    <mxGraphModel dx="1148" dy="824" grid="1" gridSize="10" guides="1" tooltips="1" connect="1" arrows="1" fold="1" page="1" pageScale="1" pageWidth="850" pageHeight="1100" math="0" shadow="0">
      <root>
        <mxCell id="0" />
        <mxCell id="1" parent="0" />
        <mxCell id="F-2Rm1FZRaijqlzbe_HK-3" style="edgeStyle=orthogonalEdgeStyle;rounded=0;orthogonalLoop=1;jettySize=auto;html=1;" edge="1" parent="1" source="F-2Rm1FZRaijqlzbe_HK-1" target="F-2Rm1FZRaijqlzbe_HK-2">
          <mxGeometry relative="1" as="geometry" />
        </mxCell>
        <mxCell id="F-2Rm1FZRaijqlzbe_HK-5" style="edgeStyle=orthogonalEdgeStyle;rounded=0;orthogonalLoop=1;jettySize=auto;html=1;" edge="1" parent="1" source="F-2Rm1FZRaijqlzbe_HK-1" target="F-2Rm1FZRaijqlzbe_HK-4">
          <mxGeometry relative="1" as="geometry" />
        </mxCell>
        <mxCell id="F-2Rm1FZRaijqlzbe_HK-9" style="edgeStyle=orthogonalEdgeStyle;rounded=0;orthogonalLoop=1;jettySize=auto;html=1;" edge="1" parent="1" source="F-2Rm1FZRaijqlzbe_HK-1" target="F-2Rm1FZRaijqlzbe_HK-6">
          <mxGeometry relative="1" as="geometry" />
        </mxCell>
        <mxCell id="F-2Rm1FZRaijqlzbe_HK-10" style="edgeStyle=orthogonalEdgeStyle;rounded=0;orthogonalLoop=1;jettySize=auto;html=1;" edge="1" parent="1" source="F-2Rm1FZRaijqlzbe_HK-1" target="F-2Rm1FZRaijqlzbe_HK-11">
          <mxGeometry relative="1" as="geometry">
            <mxPoint x="580" y="390" as="targetPoint" />
          </mxGeometry>
        </mxCell>
        <mxCell id="F-2Rm1FZRaijqlzbe_HK-19" style="edgeStyle=orthogonalEdgeStyle;rounded=0;orthogonalLoop=1;jettySize=auto;html=1;" edge="1" parent="1" source="F-2Rm1FZRaijqlzbe_HK-1" target="F-2Rm1FZRaijqlzbe_HK-18">
          <mxGeometry relative="1" as="geometry" />
        </mxCell>
        <mxCell id="F-2Rm1FZRaijqlzbe_HK-1" value="Entity" style="rounded=1;whiteSpace=wrap;html=1;strokeColor=#82b366;align=center;verticalAlign=middle;fontFamily=Helvetica;fontSize=12;fontColor=default;fillColor=#d5e8d4;" vertex="1" parent="1">
          <mxGeometry x="360" y="290" width="120" height="60" as="geometry" />
        </mxCell>
        <mxCell id="F-2Rm1FZRaijqlzbe_HK-2" value="Wall" style="rounded=1;whiteSpace=wrap;html=1;strokeColor=#6c8ebf;align=center;verticalAlign=middle;fontFamily=Helvetica;fontSize=12;fontColor=default;fillColor=#dae8fc;" vertex="1" parent="1">
          <mxGeometry x="210" y="530" width="120" height="60" as="geometry" />
        </mxCell>
        <mxCell id="F-2Rm1FZRaijqlzbe_HK-4" value="Mine" style="rounded=1;whiteSpace=wrap;html=1;strokeColor=#6c8ebf;align=center;verticalAlign=middle;fontFamily=Helvetica;fontSize=12;fontColor=default;fillColor=#dae8fc;" vertex="1" parent="1">
          <mxGeometry x="60" y="530" width="120" height="60" as="geometry" />
        </mxCell>
        <mxCell id="F-2Rm1FZRaijqlzbe_HK-8" value="" style="edgeStyle=orthogonalEdgeStyle;rounded=0;orthogonalLoop=1;jettySize=auto;html=1;" edge="1" parent="1" source="F-2Rm1FZRaijqlzbe_HK-6" target="F-2Rm1FZRaijqlzbe_HK-7">
          <mxGeometry relative="1" as="geometry" />
        </mxCell>
        <mxCell id="F-2Rm1FZRaijqlzbe_HK-6" value="Controllable" style="rounded=1;whiteSpace=wrap;html=1;strokeColor=#82b366;align=center;verticalAlign=middle;fontFamily=Helvetica;fontSize=12;fontColor=default;fillColor=#d5e8d4;" vertex="1" parent="1">
          <mxGeometry x="360" y="390" width="120" height="60" as="geometry" />
        </mxCell>
        <mxCell id="F-2Rm1FZRaijqlzbe_HK-7" value="Hero" style="whiteSpace=wrap;html=1;rounded=1;strokeColor=#6c8ebf;align=center;verticalAlign=middle;fontFamily=Helvetica;fontSize=12;fontColor=default;fillColor=#dae8fc;" vertex="1" parent="1">
          <mxGeometry x="360" y="530" width="120" height="60" as="geometry" />
        </mxCell>
        <mxCell id="F-2Rm1FZRaijqlzbe_HK-13" value="" style="edgeStyle=orthogonalEdgeStyle;rounded=0;orthogonalLoop=1;jettySize=auto;html=1;" edge="1" parent="1" source="F-2Rm1FZRaijqlzbe_HK-11" target="F-2Rm1FZRaijqlzbe_HK-12">
          <mxGeometry relative="1" as="geometry" />
        </mxCell>
        <mxCell id="F-2Rm1FZRaijqlzbe_HK-11" value="Collectable" style="rounded=1;whiteSpace=wrap;html=1;strokeColor=#82b366;align=center;verticalAlign=middle;fontFamily=Helvetica;fontSize=12;fontColor=default;fillColor=#d5e8d4;" vertex="1" parent="1">
          <mxGeometry x="510" y="390" width="120" height="60" as="geometry" />
        </mxCell>
        <mxCell id="F-2Rm1FZRaijqlzbe_HK-12" value="Gem" style="whiteSpace=wrap;html=1;rounded=1;strokeColor=#6c8ebf;align=center;verticalAlign=middle;fontFamily=Helvetica;fontSize=12;fontColor=default;fillColor=#dae8fc;" vertex="1" parent="1">
          <mxGeometry x="510" y="530" width="120" height="60" as="geometry" />
        </mxCell>
        <mxCell id="F-2Rm1FZRaijqlzbe_HK-14" value="Door" style="whiteSpace=wrap;html=1;rounded=1;strokeColor=#6c8ebf;align=center;verticalAlign=middle;fontFamily=Helvetica;fontSize=12;fontColor=default;fillColor=#dae8fc;" vertex="1" parent="1">
          <mxGeometry x="660" y="530" width="120" height="60" as="geometry" />
        </mxCell>
        <mxCell id="F-2Rm1FZRaijqlzbe_HK-15" value="GameObject" style="rounded=1;whiteSpace=wrap;html=1;fillColor=#dae8fc;strokeColor=#6c8ebf;" vertex="1" parent="1">
          <mxGeometry x="110" y="750" width="120" height="60" as="geometry" />
        </mxCell>
        <mxCell id="F-2Rm1FZRaijqlzbe_HK-16" value="AbstractClass" style="rounded=1;whiteSpace=wrap;html=1;fillColor=#d5e8d4;strokeColor=#82b366;" vertex="1" parent="1">
          <mxGeometry x="250" y="750" width="120" height="60" as="geometry" />
        </mxCell>
        <mxCell id="F-2Rm1FZRaijqlzbe_HK-20" style="edgeStyle=orthogonalEdgeStyle;rounded=0;orthogonalLoop=1;jettySize=auto;html=1;" edge="1" parent="1" source="F-2Rm1FZRaijqlzbe_HK-18" target="F-2Rm1FZRaijqlzbe_HK-14">
          <mxGeometry relative="1" as="geometry" />
        </mxCell>
        <mxCell id="F-2Rm1FZRaijqlzbe_HK-18" value="Interactable" style="rounded=1;whiteSpace=wrap;html=1;strokeColor=#82b366;align=center;verticalAlign=middle;fontFamily=Helvetica;fontSize=12;fontColor=default;fillColor=#d5e8d4;" vertex="1" parent="1">
          <mxGeometry x="660" y="390" width="120" height="60" as="geometry" />
        </mxCell>
      </root>
    </mxGraphModel>
  </diagram>
</mxfile>
